<?xml version="1.0" standalone="no"?>
<!DOCTYPE svg PUBLIC "-//W3C//DTD SVG 20010904//EN"
 "http://www.w3.org/TR/2001/REC-SVG-20010904/DTD/svg10.dtd">
<svg version="1.0" xmlns="http://www.w3.org/2000/svg"
 width="128.000000pt" height="128.000000pt" viewBox="0 0 128.000000 128.000000"
 preserveAspectRatio="xMidYMid meet">

<g transform="translate(0.000000,128.000000) scale(0.100000,-0.100000)"
fill="#513A2B" stroke="none">
<path d="M317 1111 c-84 -6 -90 -8 -117 -38 l-29 -32 4 -303 c2 -184 7 -317
14 -338 6 -19 11 -60 11 -90 0 -59 15 -91 53 -112 34 -20 515 -18 522 1 16 40
-56 50 -301 43 l-192 -5 -17 27 c-11 16 -15 36 -12 54 3 15 -1 57 -9 94 -9 47
-14 153 -16 344 -2 254 -1 277 16 289 37 28 358 24 463 -5 62 -18 81 -19 130
-11 103 20 143 13 143 -25 0 -9 -79 -3 -85 6 -10 16 -45 11 -52 -7 -4 -10 -13
-23 -22 -29 -22 -17 -6 -44 27 -44 23 0 32 -6 42 -30 17 -42 33 -52 54 -37 17
13 17 16 2 44 -15 31 -15 31 14 42 29 10 30 9 30 -19 0 -56 -23 -129 -42 -136
-26 -8 -22 -35 12 -85 32 -47 40 -99 16 -99 -18 0 -56 -52 -56 -75 0 -9 9 -19
20 -22 11 -3 20 -13 20 -22 0 -10 9 -45 21 -80 26 -77 20 -141 -17 -178 -22
-22 -30 -24 -74 -18 -41 6 -51 4 -56 -9 -3 -9 0 -24 7 -32 11 -14 27 -16 90
-11 42 3 90 12 107 21 66 34 88 134 52 241 -21 64 -22 69 -6 124 19 68 20 96
4 172 -10 48 -9 70 5 136 15 70 15 85 3 133 -25 96 -87 122 -240 100 -73 -11
-88 -10 -160 9 -83 22 -180 25 -379 12z"/>
<path fill="#ff1200" d="M343 1023 c-38 -5 -48 -25 -23 -48 19 -17 19 -19 -8 -66 -25 -45 -26
-50 -10 -65 21 -21 33 -13 63 45 22 44 26 47 54 43 40 -6 54 23 24 47 -11 9
-23 24 -26 34 -6 17 -12 18 -74 10z"/>
<path d="M517 1013 c-14 -13 -7 -43 12 -53 49 -26 82 8 40 41 -25 20 -41 23
-52 12z"/>
<path d="M717 984 c-10 -10 -9 -66 2 -82 5 -8 17 -12 27 -10 15 3 19 12 19 48
0 38 -3 45 -20 48 -12 2 -24 0 -28 -4z"/>
<path d="M501 884 c-33 -28 -41 -61 -15 -71 8 -3 25 4 38 16 31 29 56 27 115
-10 46 -29 56 -31 111 -26 84 7 97 -6 106 -103 l6 -76 -77 -92 c-97 -115 -108
-117 -186 -34 -40 41 -68 61 -100 71 -85 25 -97 55 -49 117 32 40 36 77 9 82
-10 2 -31 -16 -54 -48 -67 -91 -41 -172 63 -201 34 -9 59 -27 100 -70 32 -35
66 -60 83 -64 61 -14 85 2 173 107 46 54 86 110 88 122 3 13 2 60 -1 106 -6
77 -9 84 -39 111 -29 26 -39 29 -105 29 -62 0 -79 5 -122 30 -63 37 -104 38
-144 4z"/>
<path d="M317 774 c-41 -28 -46 -57 -11 -62 29 -4 76 35 72 61 -4 30 -19 30
-61 1z"/>
<path d="M536 748 c-32 -45 -8 -125 46 -158 42 -26 109 -27 131 -2 37 41 6
139 -53 169 -42 21 -106 16 -124 -9z"/>
<path d="M337 533 c-16 -15 -5 -44 22 -57 47 -25 72 18 29 48 -24 17 -41 20
-51 9z"/>
<path d="M313 443 c-17 -6 -16 -32 2 -63 12 -22 11 -27 -7 -47 -12 -12 -18
-29 -15 -37 7 -18 42 -22 52 -6 4 6 13 2 23 -10 25 -31 56 -17 48 22 -3 18 0
38 9 51 19 30 5 52 -29 43 -21 -5 -28 -2 -37 18 -13 27 -27 36 -46 29z"/>
<path d="M813 425 c-3 -9 3 -25 12 -35 17 -19 17 -21 0 -40 -31 -35 10 -71 43
-38 10 10 19 5 42 -21 48 -52 82 -20 40 39 -16 23 -19 34 -11 49 15 27 -12 55
-39 41 -13 -7 -21 -6 -30 5 -16 20 -49 19 -57 0z"/>
<path d="M494 386 c-6 -17 17 -66 41 -86 13 -11 18 -11 32 2 14 15 13 20 -8
57 -23 42 -54 54 -65 27z"/>
</g>
</svg>
